<svg preserveAspectRatio="none" overflow="visible" style="display: block;" width="32" height="32" viewBox="0 0 32 32" fill="none" xmlns="http://www.w3.org/2000/svg">
<g id="Lucide Icons / sparkles-bold">
<path id="Union" d="M23.1457 17.8409C23.2101 17.6667 23.4562 17.6667 23.5207 17.8409L24.922 21.627C24.9423 21.6816 24.9855 21.7249 25.0402 21.7452L28.8263 23.1456C29.0005 23.21 29.0005 23.4571 28.8263 23.5215L25.0402 24.9219C24.9855 24.9422 24.9423 24.9854 24.922 25.0401L23.5207 28.8262C23.4562 29.0003 23.2101 29.0003 23.1457 28.8262L21.7453 25.0401C21.725 24.9855 21.6817 24.9422 21.6271 24.9219L17.84 23.5215C17.6661 23.457 17.6662 23.2101 17.84 23.1456L21.6271 21.7452C21.6817 21.7249 21.725 21.6816 21.7453 21.627L23.1457 17.8409ZM10.4787 8.50689C10.5431 8.33281 10.7892 8.33291 10.8537 8.50689L12.7951 13.753C12.8153 13.8077 12.8586 13.8509 12.9132 13.8711L18.1593 15.8126C18.3335 15.877 18.3335 16.1231 18.1593 16.1876L12.9132 18.129C12.8586 18.1493 12.8153 18.1925 12.7951 18.2471L10.8537 23.4932C10.7891 23.6671 10.5431 23.6672 10.4787 23.4932L8.53727 18.2471C8.51701 18.1924 8.47384 18.1492 8.4191 18.129L3.17301 16.1876C2.99937 16.123 2.99939 15.8772 3.17301 15.8126L8.4191 13.8711C8.47381 13.8509 8.51699 13.8077 8.53727 13.753L10.4787 8.50689ZM23.1457 3.17388C23.2101 2.99976 23.4562 2.99976 23.5207 3.17388L24.922 6.96001C24.9423 7.01465 24.9855 7.05795 25.0402 7.07818L28.8263 8.47857C29.0005 8.543 29.0005 8.79011 28.8263 8.85454L25.0402 10.2549C24.9855 10.2752 24.9423 10.3184 24.922 10.3731L23.5207 14.1592C23.4562 14.3334 23.2101 14.3334 23.1457 14.1592L21.7453 10.3731C21.725 10.3185 21.6817 10.2752 21.6271 10.2549L17.84 8.85454C17.6661 8.79003 17.6662 8.54311 17.84 8.47857L21.6271 7.07818C21.6817 7.0579 21.725 7.01461 21.7453 6.96001L23.1457 3.17388Z" fill="url(#paint0_linear_0_17)" fill-opacity="0.2"/>
<path id="Union_2" d="M23.146 17.8407C23.2104 17.6666 23.4565 17.6666 23.521 17.8407L24.9223 21.6268C24.9426 21.6816 24.9858 21.7247 25.0405 21.745L28.8266 23.1464C29.0008 23.2108 29.0008 23.4569 28.8266 23.5214L25.0405 24.9227C24.9858 24.943 24.9426 24.9862 24.9223 25.0409L23.521 28.827C23.4564 29.0008 23.2105 29.0009 23.146 28.827L21.7446 25.0409C21.7244 24.9861 21.6812 24.943 21.6264 24.9227L17.8403 23.5214C17.6665 23.4568 17.6666 23.211 17.8403 23.1464L21.6264 21.745C21.6812 21.7247 21.7243 21.6815 21.7446 21.6268L23.146 17.8407ZM10.479 8.50671C10.5435 8.33305 10.7893 8.33315 10.854 8.50671L12.7954 13.7528C12.8156 13.8075 12.8589 13.8507 12.9136 13.871L18.1597 15.8124C18.3338 15.8768 18.3338 16.1229 18.1597 16.1874L12.9136 18.1288C12.8589 18.149 12.8157 18.1923 12.7954 18.2469L10.854 23.493C10.7896 23.6672 10.5434 23.6672 10.479 23.493L8.53758 18.2469C8.51727 18.1924 8.47405 18.149 8.41942 18.1288L3.17332 16.1874C2.99966 16.1227 2.99951 15.8769 3.17332 15.8124L8.41942 13.871C8.47416 13.8507 8.51733 13.8075 8.53758 13.7528L10.479 8.50671ZM23.146 3.1737C23.2104 2.99959 23.4565 2.99961 23.521 3.1737L24.9223 6.95984C24.9426 7.01457 24.9858 7.05774 25.0405 7.078L28.8266 8.47937C29.0008 8.5438 29.0008 8.78994 28.8266 8.85437L25.0405 10.2557C24.9858 10.276 24.9426 10.3192 24.9223 10.3739L23.521 14.16C23.4564 14.3338 23.2105 14.3339 23.146 14.16L21.7446 10.3739C21.7244 10.3192 21.6812 10.276 21.6264 10.2557L17.8403 8.85437C17.6665 8.78984 17.6666 8.54396 17.8403 8.47937L21.6264 7.078C21.6812 7.05775 21.7243 7.01455 21.7446 6.95984L23.146 3.1737Z" fill="url(#paint1_linear_0_17)" fill-opacity="0.2"/>
<path id="Union_3" d="M23.1459 17.8407C23.2103 17.6666 23.4564 17.6666 23.5209 17.8407L24.9223 21.6268C24.9425 21.6815 24.9857 21.7247 25.0404 21.745L28.8266 23.1463C29.0007 23.2108 29.0007 23.4569 28.8266 23.5213L25.0404 24.9227C24.9858 24.943 24.9425 24.9862 24.9223 25.0409L23.5209 28.827C23.4563 29.0008 23.2104 29.0009 23.1459 28.827L21.7455 25.0409C21.7253 24.9863 21.6818 24.943 21.6273 24.9227L17.8402 23.5213C17.6665 23.4568 17.6666 23.2109 17.8402 23.1463L21.6273 21.745C21.6819 21.7246 21.7253 21.6814 21.7455 21.6268L23.1459 17.8407ZM10.4789 8.50668C10.5434 8.33298 10.7892 8.3331 10.8539 8.50668L12.7953 13.7528C12.8155 13.8074 12.8589 13.8506 12.9135 13.8709L18.1596 15.8123C18.3337 15.8768 18.3337 16.1229 18.1596 16.1873L12.9135 18.1288C12.8588 18.149 12.8156 18.1923 12.7953 18.2469L10.8539 23.493C10.7895 23.6671 10.5433 23.6671 10.4789 23.493L8.53749 18.2469C8.51719 18.1923 8.47397 18.149 8.41933 18.1288L3.17323 16.1873C2.99961 16.1227 2.99947 15.8768 3.17323 15.8123L8.41933 13.8709C8.47407 13.8507 8.51723 13.8075 8.53749 13.7528L10.4789 8.50668ZM23.1459 3.17368C23.2103 2.99956 23.4564 2.99957 23.5209 3.17368L24.9223 6.95981C24.9425 7.01453 24.9857 7.05771 25.0404 7.07797L28.8266 8.47934C29.0007 8.54377 29.0007 8.78991 28.8266 8.85434L25.0404 10.2557C24.9858 10.276 24.9425 10.3192 24.9223 10.3739L23.5209 14.16C23.4563 14.3338 23.2104 14.3339 23.1459 14.16L21.7455 10.3739C21.7253 10.3193 21.6818 10.276 21.6273 10.2557L17.8402 8.85434C17.6665 8.7898 17.6666 8.54395 17.8402 8.47934L21.6273 7.07797C21.6819 7.05765 21.7253 7.01441 21.7455 6.95981L23.1459 3.17368Z" fill="url(#paint2_linear_0_17)" fill-opacity="0.2"/>
<path id="Union_4" d="M23.1462 17.8409C23.2106 17.6668 23.4567 17.6668 23.5212 17.8409L24.9226 21.627C24.9428 21.6817 24.986 21.7249 25.0407 21.7452L28.8268 23.1465C29.001 23.211 29.001 23.4571 28.8268 23.5215L25.0407 24.9229C24.986 24.9432 24.9428 24.9864 24.9226 25.0411L23.5212 28.8272C23.4566 29.001 23.2107 29.0011 23.1462 28.8272L21.7448 25.0411C21.7246 24.9863 21.6814 24.9432 21.6267 24.9229L17.8405 23.5215C17.6667 23.457 17.6668 23.2111 17.8405 23.1465L21.6267 21.7452C21.6814 21.7249 21.7245 21.6817 21.7448 21.627L23.1462 17.8409ZM10.4792 8.50688C10.5437 8.33322 10.7895 8.33331 10.8542 8.50688L12.7956 13.753C12.8158 13.8076 12.8591 13.8508 12.9138 13.8711L18.1599 15.8125C18.334 15.877 18.334 16.1231 18.1599 16.1875L12.9138 18.129C12.8591 18.1492 12.8159 18.1925 12.7956 18.2471L10.8542 23.4932C10.7898 23.6673 10.5436 23.6673 10.4792 23.4932L8.53779 18.2471C8.51748 18.1925 8.47426 18.1492 8.41962 18.129L3.17353 16.1875C2.99982 16.1229 2.99967 15.877 3.17353 15.8125L8.41962 13.8711C8.47436 13.8509 8.51753 13.8077 8.53779 13.753L10.4792 8.50688ZM23.1462 3.17388C23.2106 2.99976 23.4567 2.99977 23.5212 3.17388L24.9226 6.96001C24.9428 7.01475 24.986 7.05792 25.0407 7.07817L28.8268 8.47954C29.001 8.54397 29.001 8.79011 28.8268 8.85454L25.0407 10.2559C24.986 10.2762 24.9428 10.3194 24.9226 10.3741L23.5212 14.1602C23.4566 14.334 23.2107 14.3341 23.1462 14.1602L21.7448 10.3741C21.7246 10.3193 21.6814 10.2762 21.6267 10.2559L17.8405 8.85454C17.6667 8.79003 17.6668 8.54412 17.8405 8.47954L21.6267 7.07817C21.6814 7.05792 21.7245 7.01472 21.7448 6.96001L23.1462 3.17388Z" fill="url(#paint3_linear_0_17)" fill-opacity="0.2"/>
</g>
<defs>
<linearGradient id="paint0_linear_0_17" x1="15.9999" y1="3.04329" x2="15.9999" y2="28.9568" gradientUnits="userSpaceOnUse">
<stop stop-color="#104FED"/>
<stop offset="1" stop-color="#E3000A"/>
</linearGradient>
<linearGradient id="paint1_linear_0_17" x1="16.0001" y1="3.04313" x2="16.0001" y2="28.9574" gradientUnits="userSpaceOnUse">
<stop stop-color="#104FED"/>
<stop offset="1" stop-color="#E3000A"/>
</linearGradient>
<linearGradient id="paint2_linear_0_17" x1="16.0001" y1="3.04309" x2="16.0001" y2="28.9574" gradientUnits="userSpaceOnUse">
<stop stop-color="#104FED"/>
<stop offset="1" stop-color="#E3000A"/>
</linearGradient>
<linearGradient id="paint3_linear_0_17" x1="16.0003" y1="3.04329" x2="16.0003" y2="28.9576" gradientUnits="userSpaceOnUse">
<stop stop-color="#104FED"/>
<stop offset="1" stop-color="#E3000A"/>
</linearGradient>
</defs>
</svg>
